<svg width="24" height="31" viewBox="0 0 24 31" fill="none" xmlns="http://www.w3.org/2000/svg">
<path d="M12.4127 0C4.30473 0 0 5.44763 0 11.3814C0 14.1362 1.46355 17.5702 3.81312 18.6637C4.1695 18.83 4.35826 18.7539 4.43714 18.4101C4.50335 18.1494 4.82169 16.8755 4.96255 16.2809C4.98929 16.1864 4.99101 16.0866 4.96755 15.9912C4.94409 15.8959 4.89626 15.8083 4.82874 15.737C4.054 14.7971 3.43702 13.0653 3.43702 11.4519C3.43702 7.30625 6.57542 3.29733 11.9183 3.29733C16.5386 3.29733 19.7657 6.43965 19.7657 10.9432C19.7657 16.0301 17.202 19.55 13.8622 19.55C12.0183 19.55 10.6351 18.0268 11.0759 16.1499C11.6084 13.9178 12.6339 11.5026 12.6339 9.89621C12.6339 8.45045 11.8563 7.24285 10.2604 7.24285C8.37141 7.24285 6.85855 9.19447 6.85855 11.8098C6.85855 13.4754 7.422 14.597 7.422 14.597C7.422 14.597 5.5584 22.4782 5.22033 23.9451C4.63857 26.4322 5.29217 30.4622 5.35274 30.8159C5.38232 31.0047 5.59502 31.0695 5.70771 30.9089C5.88942 30.6623 8.13758 27.2945 8.77004 24.861L9.93638 20.3927C10.5548 21.5609 12.3409 22.55 14.2482 22.55C19.9122 22.55 24 17.3321 24 10.8558C24.0028 4.65149 18.9318 0 12.4127 0Z" fill="#00605C"/>
</svg>
